# Blender 4.5.2 LTS
# www.blender.org
mtllib Start.mtl
o Cube
v -1.500000 -0.230000 2.000000
v -1.500000 -0.230000 -2.000000
v -1.500000 0.230000 -2.000000
v 1.500000 -0.230000 2.000000
v 1.500000 -0.230000 -2.000000
v 1.500000 0.230000 -2.000000
v -1.500000 -0.230000 0.000000
v -1.500000 0.230000 0.000000
v 1.500000 -0.230000 0.000000
v 1.500000 0.230000 0.000000
v -1.500000 -0.230000 1.000000
v 1.500000 0.230000 1.000000
v -1.500000 0.230000 1.000000
v 1.500000 -0.230000 1.000000
vn -1.0000 -0.0000 -0.0000
vn -0.0000 -0.0000 -1.0000
vn -0.0000 -1.0000 -0.0000
vn -0.0000 1.0000 -0.0000
vn 1.0000 -0.0000 -0.0000
vn -0.0000 0.9085 0.4179
vt 0.375000 0.125000
vt 0.625000 0.125000
vt 0.625000 0.250000
vt 0.375000 0.250000
vt 0.625000 0.500000
vt 0.375000 0.500000
vt 0.125000 0.687500
vt 0.375000 0.687500
vt 0.375000 0.750000
vt 0.125000 0.750000
vt 0.875000 0.500000
vt 0.875000 0.625000
vt 0.625000 0.625000
vt 0.125000 0.500000
vt 0.375000 0.625000
vt 0.125000 0.625000
vt 0.375000 0.062500
vt 0.625000 0.062500
vt 0.875000 0.687500
vt 0.625000 0.687500
s 0
f 7/1/1 8/2/1 3/3/1 2/4/1
f 2/4/2 3/3/2 6/5/2 5/6/2
f 11/7/3 14/8/3 4/9/3 1/10/3
f 6/5/4 3/11/4 8/12/4 10/13/4
f 2/14/3 5/6/3 9/15/3 7/16/3
f 5/6/5 6/5/5 10/13/5 9/15/5
f 11/17/1 13/18/1 8/2/1 7/1/1
f 10/13/4 8/12/4 13/19/4 12/20/4
f 7/16/3 9/15/3 14/8/3 11/7/3
f 9/15/5 10/13/5 12/20/5 14/8/5
f 4/9/6 12/20/6 13/19/6 1/10/6
f 14/8/5 12/20/5 4/9/5
f 11/17/1 1/10/1 13/18/1
